<?xml version="1.0" encoding="UTF-8" standalone="no"?>
<!-- Created with Inkscape (http://www.inkscape.org/) -->

<svg
   xmlns:dc="http://purl.org/dc/elements/1.1/"
   xmlns:cc="http://creativecommons.org/ns#"
   xmlns:rdf="http://www.w3.org/1999/02/22-rdf-syntax-ns#"
   xmlns:svg="http://www.w3.org/2000/svg"
   xmlns="http://www.w3.org/2000/svg"
   xmlns:sodipodi="http://sodipodi.sourceforge.net/DTD/sodipodi-0.dtd"
   xmlns:inkscape="http://www.inkscape.org/namespaces/inkscape"
   version="1.1"
   id="svg2"
   xml:space="preserve"
   width="96"
   height="132.27866"
   viewBox="0 0 96 132.27866"
   sodipodi:docname="heroku.svg"
   inkscape:version="0.92.2 (5c3e80d, 2017-08-06)"><metadata
     id="metadata8"><rdf:RDF><cc:Work
         rdf:about=""><dc:format>image/svg+xml</dc:format><dc:type
           rdf:resource="http://purl.org/dc/dcmitype/StillImage" /><dc:title></dc:title></cc:Work></rdf:RDF></metadata><defs
     id="defs6" /><sodipodi:namedview
     pagecolor="#ffffff"
     bordercolor="#666666"
     borderopacity="1"
     objecttolerance="10"
     gridtolerance="10"
     guidetolerance="10"
     inkscape:pageopacity="0"
     inkscape:pageshadow="2"
     inkscape:window-width="1366"
     inkscape:window-height="715"
     id="namedview4"
     showgrid="false"
     fit-margin-top="0"
     fit-margin-left="0"
     fit-margin-right="0"
     fit-margin-bottom="0"
     inkscape:zoom="1.0350877"
     inkscape:cx="48.000001"
     inkscape:cy="66.278668"
     inkscape:window-x="-8"
     inkscape:window-y="-8"
     inkscape:window-maximized="1"
     inkscape:current-layer="g10" /><g
     id="g10"
     inkscape:groupmode="layer"
     inkscape:label="ink_ext_XXXXXX"
     transform="matrix(1.3333333,0,0,-1.3333333,-47.999999,180)"><g
       id="g12"
       transform="scale(0.1)"><path
         d="m 1040,622 c 0,-17.641 -14.35,-32 -32,-32 H 432 c -17.645,0 -32,14.359 -32,32 v 656 c 0,17.64 14.355,32 32,32 h 576 c 17.65,0 32,-14.36 32,-32 z m -32,728 H 432 c -39.766,0 -72,-32.23 -72,-72 V 622 c 0,-39.762 32.234,-72 72,-72 h 576 c 39.76,0 72,32.238 72,72 v 656 c 0,39.77 -32.24,72 -72,72"
         style="fill:#412b8d;fill-opacity:1;fill-rule:nonzero;stroke:none"
         id="path14"
         inkscape:connector-curvature="0" /><path
         d="m 540,670 90,80 -90,80 z"
         style="fill:#412b8d;fill-opacity:1;fill-rule:nonzero;stroke:none"
         id="path16"
         inkscape:connector-curvature="0" /><path
         d="M 865.172,994.246 C 849.047,1010.56 819.449,1030 770,1030 c -54.234,0 -110.062,-14.11 -150,-27.11 V 1230 H 540 V 883.074 l 56.508,25.602 C 597.418,909.094 688.656,950 770,950 c 40.613,0 49.609,-22.426 50,-41.098 V 670 h 80 l -0.004,240 c 0.059,5.117 -0.422,49.453 -34.824,84.246"
         style="fill:#412b8d;fill-opacity:1;fill-rule:nonzero;stroke:none"
         id="path18"
         inkscape:connector-curvature="0" /><path
         d="m 760,1100 h 80 c 36.18,41 54.598,84.57 60,130 h -80 c -8.82,-45.34 -28.562,-88.75 -60,-130"
         style="fill:#412b8d;fill-opacity:1;fill-rule:nonzero;stroke:none"
         id="path20"
         inkscape:connector-curvature="0" /><path
         d="m 360,469.031 h 29.477 V 428.5 h 36.253 v 40.531 h 29.481 V 359.969 H 425.73 v 44.07 h -36.253 v -44.07 H 360 v 109.062"
         style="fill:#412b8d;fill-opacity:1;fill-rule:nonzero;stroke:none"
         id="path22"
         inkscape:connector-curvature="0" /><path
         d="m 493.18,469.031 h 77.816 v -24.472 h -48.34 v -17.68 h 34.489 v -22.988 h -34.489 v -20.192 h 50.848 v -23.73 H 493.18 v 109.062"
         style="fill:#412b8d;fill-opacity:1;fill-rule:nonzero;stroke:none"
         id="path24"
         inkscape:connector-curvature="0" /><path
         d="m 647.441,420.25 c 12.082,0 17.387,3.391 17.387,12.531 0,9.129 -5.305,12.379 -17.387,12.379 h -12.675 v -24.91 z m -41.562,48.781 h 42.594 c 28.004,0 45.101,-9.293 45.101,-35.519 0,-17.09 -7.226,-26.973 -21.519,-31.832 l 23.136,-41.711 h -31.242 l -21.078,37.871 h -8.105 v -37.871 h -28.887 v 109.062"
         style="fill:#412b8d;fill-opacity:1;fill-rule:nonzero;stroke:none"
         id="path26"
         inkscape:connector-curvature="0" /><path
         d="m 801.992,414.5 c 0,20.051 -8.695,32.281 -24.019,32.281 -15.477,0 -24.172,-12.23 -24.172,-32.281 0,-20.051 8.695,-33.012 24.172,-33.012 15.324,0 24.019,12.961 24.019,33.012 z m -77.668,0 c 0,39.941 27.266,56.602 53.649,56.602 26.23,0 53.5,-16.661 53.5,-56.602 0,-39.941 -27.27,-56.59 -53.5,-56.59 -26.383,0 -53.649,16.649 -53.649,56.59"
         style="fill:#412b8d;fill-opacity:1;fill-rule:nonzero;stroke:none"
         id="path28"
         inkscape:connector-curvature="0" /><path
         d="m 864.285,469.031 h 29.477 v -39.5 l 30.066,39.5 H 958.02 L 921.32,426 961.262,359.969 h -33.313 l -25.785,43.633 -8.402,-9.731 v -33.902 h -29.477 v 109.062"
         style="fill:#412b8d;fill-opacity:1;fill-rule:nonzero;stroke:none"
         id="path30"
         inkscape:connector-curvature="0" /><path
         d="m 988.477,403.738 v 65.293 h 29.473 v -65.14 c 0,-15.032 4.87,-21.813 16.66,-21.813 11.79,0 16.5,6.781 16.5,21.813 v 65.14 H 1080 v -65.293 c 0,-28.886 -13.85,-45.386 -45.69,-45.386 -31.83,0 -45.833,16.5 -45.833,45.386"
         style="fill:#412b8d;fill-opacity:1;fill-rule:nonzero;stroke:none"
         id="path32"
         inkscape:connector-curvature="0" /></g></g></svg>