<?xml version="1.0" encoding="UTF-8" standalone="no"?>
<!-- Created with Inkscape (http://www.inkscape.org/) -->

<svg
   xmlns:dc="http://purl.org/dc/elements/1.1/"
   xmlns:cc="http://creativecommons.org/ns#"
   xmlns:rdf="http://www.w3.org/1999/02/22-rdf-syntax-ns#"
   xmlns:svg="http://www.w3.org/2000/svg"
   xmlns="http://www.w3.org/2000/svg"
   xmlns:sodipodi="http://sodipodi.sourceforge.net/DTD/sodipodi-0.dtd"
   xmlns:inkscape="http://www.inkscape.org/namespaces/inkscape"
   width="705.9118"
   height="441.55838"
   viewBox="0 0 186.77249 116.82899"
   version="1.1"
   id="svg4700"
   inkscape:version="0.92.2 (5c3e80d, 2017-08-06)"
   sodipodi:docname="logo.svg">
  <defs
     id="defs4694">
    <inkscape:path-effect
       effect="skeletal"
       id="path-effect4760"
       is_visible="true"
       pattern="m 112.80173,21.265413 c 0,-2.76 2.24,-5 5,-5 2.76,0 5,2.24 5,5 0,2.76 -2.24,5 -5,5 -2.76,0 -5,-2.24 -5,-5 z"
       copytype="single_stretched"
       prop_scale="11.413858"
       scale_y_rel="false"
       spacing="0"
       normal_offset="0"
       tang_offset="0"
       prop_units="false"
       vertical_pattern="false"
       fuse_tolerance="0" />
  </defs>
  <sodipodi:namedview
     id="base"
     pagecolor="#ffffff"
     bordercolor="#666666"
     borderopacity="1.0"
     inkscape:pageopacity="0.0"
     inkscape:pageshadow="2"
     inkscape:zoom="0.7"
     inkscape:cx="107.33837"
     inkscape:cy="107.16756"
     inkscape:document-units="px"
     inkscape:current-layer="layer23"
     showgrid="false"
     showborder="true"
     inkscape:window-width="1366"
     inkscape:window-height="715"
     inkscape:window-x="-8"
     inkscape:window-y="-8"
     inkscape:window-maximized="1"
     units="px"
     fit-margin-top="0"
     fit-margin-left="0"
     fit-margin-right="0"
     fit-margin-bottom="0" />
  <metadata
     id="metadata4697">
    <rdf:RDF>
      <cc:Work
         rdf:about="">
        <dc:format>image/svg+xml</dc:format>
        <dc:type
           rdf:resource="http://purl.org/dc/dcmitype/StillImage" />
        <dc:title></dc:title>
      </cc:Work>
    </rdf:RDF>
  </metadata>
  <g
     inkscape:groupmode="layer"
     id="layer26"
     inkscape:label="Layer 7"
     style="display:inline"
     transform="translate(-13.66338,-7.4736527)">
    <ellipse
       style="opacity:0;fill:#000000;fill-opacity:1;stroke:#000000;stroke-width:0.22998391"
       id="path4748"
       cx="84.798187"
       cy="68.483749"
       rx="40.027496"
       ry="19.150288" />
    <ellipse
       style="opacity:0;fill:#000000;fill-opacity:1;stroke:#000000;stroke-width:0.22998391"
       id="path4750"
       cx="101.65187"
       cy="68.150703"
       rx="73.086639"
       ry="41.797581" />
    <ellipse
       style="opacity:0;fill:#000000;fill-opacity:1;stroke:#000000;stroke-width:0.22998391"
       id="path4752"
       cx="78.802162"
       cy="61.822777"
       rx="14.584917"
       ry="6.4944453" />
    <path
       style="fill:#3939ff;fill-opacity:1;stroke:none;stroke-width:0.45008793px;stroke-linecap:butt;stroke-linejoin:miter;stroke-opacity:1"
       d="M 17.85069,42.350956 C 29.85668,13.226261 64.038796,-0.33711363 94.150055,12.075565 124.26131,24.488244 138.95545,58.199736 126.94946,87.32443 114.94347,116.44912 80.76135,130.0125 50.650091,117.59982 20.538831,105.18714 5.8446999,71.475651 17.85069,42.350956 Z"
       id="path4758"
       inkscape:connector-curvature="0"
       inkscape:path-effect="#path-effect4760"
       inkscape:original-d="M 17.85069,42.350956 126.94945,87.324428"
       sodipodi:nodetypes="cc" />
  </g>
  <g
     inkscape:groupmode="layer"
     id="layer27"
     inkscape:label="Layer 8"
     style="display:inline"
     transform="translate(-13.66338,-7.4736527)">
    <path
       style="fill:#00b034;fill-opacity:1;stroke:none;stroke-width:0.22998391px;stroke-linecap:butt;stroke-linejoin:miter;stroke-opacity:1"
       d="m 76.114837,33.113607 c -2.750158,0.235501 -2.291797,-0.2355 -4.354415,0.235501 -2.06262,0.471002 -3.208519,0.235499 -3.896059,2.119506 -0.687541,1.884007 -0.687541,2.119509 -1.60426,3.532513 -0.91672,1.413006 -0.229179,1.648506 -2.750158,2.355009 -2.520977,0.706504 -3.208517,0.942003 -4.583597,0.942003 -1.375078,0 -3.666878,-0.471002 -3.666878,-0.471002 h -1.375078 c 0,0 -1.37508,-0.706501 -1.37508,1.413005 0,2.119507 0.22918,2.826011 0,3.768014 -15.156687,1.534111 -7.170842,9.802516 -8.021294,17.427061 -0.687541,2.119507 -0.687541,2.590509 -0.687541,2.590509 0,0 0.458361,1.648505 1.375079,4.003514 0.91672,2.355007 0.458362,5.181019 0.458362,5.181019 0,0 -1.1459,0.471003 3.666877,-0.942005 4.812776,-1.413005 8.479654,-2.590508 9.854735,-3.768014 1.375077,-1.177503 3.208516,-3.29701 4.354415,-3.53251 1.145901,-0.235502 2.2918,-1.413006 3.437699,-0.471003 1.1459,0.942003 2.750158,2.355009 2.750158,2.355009 l 0.45836,0.471001 c 0,0 0.458359,0 1.375078,2.119507 0.91672,2.119506 -0.916719,2.119506 1.60426,2.119506 2.520978,0 5.041958,-0.942 5.041958,-0.942 0,0 -0.458361,1.177502 -0.916719,2.355008 -0.458362,1.177506 -0.458362,1.648509 -0.458362,1.648509 0,0 -0.458358,-0.235502 1.375081,0.706503 1.833439,0.941996 2.97934,1.177498 4.81278,1.884001 1.83344,0.706504 0.68754,1.177507 4.12523,1.177507 3.4377,0 3.4377,-0.706504 6.41704,-1.648509 2.97934,-0.942005 5.04196,-2.355004 5.04196,-2.355004 0,0 0.22918,1.177498 0.22918,-0.942005 0,-2.119511 -0.22918,-2.119511 -0.68754,-4.94552 -0.45836,-2.826009 -4.12524,-2.119506 -0.68754,-6.12302 3.437692,-4.003515 5.041952,-4.239016 6.187852,-7.065025 1.14591,-2.82601 1.37508,-4.003514 1.14591,-5.88752 -0.22918,-1.884007 -1.37509,-3.297012 -2.52099,-4.239015 -1.1459,-0.942004 -2.520972,-2.355008 -3.666872,-2.590511 -1.1459,-0.2355 -1.60426,0.471004 -4.5836,-1.177503 -2.97934,-1.648506 -5.04196,-1.648506 -5.50032,-3.06151 -0.45836,-1.413006 -0.68754,-1.648506 -1.1459,-4.003515 -0.45836,-2.355007 0.22918,-4.003513 -0.91672,-5.416517 -1.14589,-1.413007 -1.37508,-4.003516 -2.29179,-2.59051 -0.91672,1.413003 -0.91672,7.300526 -0.91672,7.300526 v 2.590509 0.942003 c 0,0 0,0.471001 -1.83344,-0.471002 -1.833443,-0.942003 -3.20852,-2.119507 -4.354421,-2.119507 -1.145899,0 -2.520976,-0.471003 -2.520976,-0.471003 0,0 -1.375081,-1.177503 0.687537,-1.413003 2.062621,-0.235503 0.916719,-2.59051 0.916719,-2.59051 z"
       id="path5310"
       inkscape:connector-curvature="0"
       sodipodi:nodetypes="csssssccscccscsscsccssccccssscsssssscscssccccsscsc" />
    <path
       style="fill:#00b034;fill-opacity:1;stroke:none;stroke-width:0.22998391px;stroke-linecap:butt;stroke-linejoin:miter;stroke-opacity:1"
       d="m 25.891323,28.018361 c 0,0 6.644241,-2.664387 7.049377,-2.997435 0.405138,-0.333049 0.486164,-1.415457 3.646229,-1.58198 3.160065,-0.166525 5.833968,0 6.077048,1.415457 0.243082,1.415454 -0.24308,1.665241 -0.648218,2.914174 -0.405135,1.248931 -1.701574,1.998289 -1.944655,3.163958 -0.243083,1.16567 0,1.998291 1.377464,1.248933 1.377465,-0.749359 1.377465,-1.498717 2.673903,-2.914173 1.296436,-1.415457 1.863626,-1.831768 2.835956,-3.163962 0.972327,-1.332194 1.620545,-2.331339 2.673901,-3.996582 1.053355,-1.665242 3.484173,-3.663532 -0.08102,-3.330484 -3.565204,0.333049 -5.833969,0.582836 -6.725269,0.749359 -0.8913,0.166525 -3.241092,0.666098 -3.322121,0.166525 -0.08102,-0.499573 -1.053353,-0.749359 0.243083,-1.498718 1.296438,-0.74936 2.714416,-3.12233 2.714416,-3.12233 0,0 -0.08103,-0.291417 -0.364625,-0.457941 -0.283595,-0.166524 -0.405135,-0.249786 -0.405135,-0.249786 0,0 -12.478207,7.618484 -15.800327,13.654985 z"
       id="path5312"
       inkscape:connector-curvature="0" />
    <path
       style="fill:#00b034;fill-opacity:1;stroke:none;stroke-width:0.22998391px;stroke-linecap:butt;stroke-linejoin:miter;stroke-opacity:1"
       d="m 119.39685,80.223709 c 0,0 0.32411,0.666096 0.32411,0.999145 0,0.333048 0.24308,0.416312 -0.32411,0.999146 -0.56719,0.582835 -0.8913,0.582835 -1.29643,1.082406 -0.40515,0.499572 -0.81028,0.666102 -1.21542,1.248932 -0.40514,0.58283 -0.56718,0.6661 -0.56718,1.58198 0,0.91588 -0.64823,0.58284 0.24308,0.41631 0.89129,-0.16652 0.72924,-0.0833 1.45848,-0.24978 0.72925,-0.16653 1.37747,-0.83262 1.62055,-0.33306 0.24308,0.49958 0.16206,1.41546 0.081,-0.66609 -0.081,-2.081554 0.081,-2.248079 0.97233,-2.414601 0.8913,-0.166526 1.45849,-0.582835 1.62055,-1.16567 0.16205,-0.582834 0.64821,-0.832622 0.24308,-1.498718 -0.40514,-0.666098 -0.48616,-0.915883 -1.13438,-0.999147 -0.64822,-0.08326 -0.97233,-0.416309 -1.37746,0 -0.40514,0.416312 -0.64822,0.999147 -0.64822,0.999147 z"
       id="path5316"
       inkscape:connector-curvature="0" />
    <path
       style="fill:#00b034;fill-opacity:1;stroke:none;stroke-width:0.22998391px;stroke-linecap:butt;stroke-linejoin:miter;stroke-opacity:1"
       d="m 118.3435,88.216868 c 0,0 0.56719,0.41631 -1.62055,0.6661 -2.18774,0.24978 -2.10671,-0.24979 -2.67391,0.49958 -0.56719,0.74935 -0.16205,0.66609 -1.37746,1.99828 -1.21541,1.3322 -0.64822,1.41546 -2.26876,2.08156 -1.62055,0.6661 -1.37747,0.33305 -2.75493,0.91588 -1.37747,0.58284 -3.07904,0.58284 -1.37747,1.08241 1.70158,0.49957 1.29644,0.24979 3.32212,0.41631 2.02569,0.16652 3.2411,0 4.05137,0.16652 0.81027,0.16653 0.97233,-0.0833 0.48617,-0.91588 -0.48617,-0.83262 -1.7826,-1.24893 -0.64823,-1.83176 1.13439,-0.58284 1.53952,-0.49958 2.3498,-0.99915 0.81027,-0.49958 1.05335,-0.83262 1.37746,-1.49872 0.32411,-0.6661 0,-0.74936 0.81027,-0.99914 0.81028,-0.24979 1.05336,0 0.97233,-0.49958 -0.081,-0.49957 -0.32411,-0.91588 -0.32411,-0.91588 z"
       id="path5318"
       inkscape:connector-curvature="0" />
  </g>
  <g
     inkscape:groupmode="layer"
     id="layer21"
     inkscape:label="Layer 2"
     style="display:inline;opacity:1"
     transform="translate(-13.66338,-7.4736527)">
    <path
       style="fill:#808080;stroke:#000000;stroke-width:0.22998391px;stroke-linecap:butt;stroke-linejoin:miter;stroke-opacity:1"
       d="m 123.52925,61.989305 c 0,0 -8.2648,1.332195 -9.72329,-6.827493 -1.45848,-8.159687 8.5889,-8.65926 8.5889,-8.65926 0,0 4.05137,-0.166525 5.99602,4.829204 1.94466,4.995726 -1.45849,7.993162 -1.45849,7.993162 z"
       id="path4714"
       inkscape:connector-curvature="0" />
  </g>
  <g
     inkscape:groupmode="layer"
     id="layer25"
     inkscape:label="Layer 6"
     style="display:inline"
     transform="translate(-13.66338,-7.4736527)">
    <path
       style="display:inline;fill:#333333;stroke:#000000;stroke-width:0.22998391px;stroke-linecap:butt;stroke-linejoin:miter;stroke-opacity:1"
       d="m 137.14184,55.328336 47.482,-29.308263 15.55724,6.66097 -50.88515,29.807835 z"
       id="path4723-2"
       inkscape:connector-curvature="0" />
  </g>
  <g
     inkscape:groupmode="layer"
     id="layer22"
     inkscape:label="Layer 3"
     style="display:inline"
     transform="translate(-13.66338,-7.4736527)">
    <path
       style="fill:#e6e6e6;stroke:#000000;stroke-width:0.22998391px;stroke-linecap:butt;stroke-linejoin:miter;stroke-opacity:1"
       d="m 139.57265,73.979049 -15.7193,-8.159687 c 0,0 -4.05136,-15.986326 9.39917,-15.653276 l 23.33587,11.823221 -12.96437,11.656695 z"
       id="path4717"
       inkscape:connector-curvature="0" />
  </g>
  <g
     inkscape:groupmode="layer"
     id="layer24"
     inkscape:label="Layer 5"
     style="display:inline"
     transform="translate(-13.66338,-7.4736527)">
    <path
       style="fill:#1a1a1a;stroke:none;stroke-width:0.22998391px;stroke-linecap:butt;stroke-linejoin:miter;stroke-opacity:1"
       d="M 71.362538,122.99432 C 58.741106,102.98479 54.636753,102.93664 124.33952,63.488023 l 13.36351,5.892711 c -28.60959,16.843884 -59.709783,31.468746 6.42821,54.921906 z"
       id="path4725"
       inkscape:connector-curvature="0"
       sodipodi:nodetypes="ccccc" />
    <path
       style="fill:#ffdd55;stroke:none;stroke-width:0.22998391px;stroke-linecap:butt;stroke-linejoin:miter;stroke-opacity:1"
       d="M 93.090778,121.93803 C 74.478936,107.79678 68.498329,102.05391 130.49637,66.233922 l 1.38968,0.615178 c -27.56421,17.653078 -64.919749,38.11067 -29.39232,55.13663 z"
       id="path4727"
       inkscape:connector-curvature="0"
       sodipodi:nodetypes="ccccc" />
  </g>
  <g
     inkscape:groupmode="layer"
     id="layer23"
     inkscape:label="Layer 4"
     style="opacity:1"
     transform="translate(-13.66338,-7.4736527)">
    <path
       style="fill:#f2f2f2;stroke:#000000;stroke-width:0.22998391px;stroke-linecap:butt;stroke-linejoin:miter;stroke-opacity:1"
       d="M 167.93221,90.797998 142.6795,80.091673 c -10.52124,-10.019436 0.50074,-24.845026 7.6247,-24.174585 l 26.35116,10.978765 c 0,0 5.86177,3.586187 1.00013,14.909835 -4.86163,11.32365 -9.72328,8.99231 -9.72328,8.99231 z"
       id="path4720"
       inkscape:connector-curvature="0"
       sodipodi:nodetypes="ccccsc" />
  </g>
</svg>
